<svg width="505" height="84" viewBox="0 0 505 84" fill="none" xmlns="http://www.w3.org/2000/svg">
<path d="M0.975 65C0.975 61.52 0.975 58.145 0.975 54.875C0.975 51.605 0.975 47.975 0.975 43.985V22.25C0.975 18.17 0.975 14.465 0.975 11.135C0.975 7.805 0.975 4.37 0.975 0.829995C3.525 0.829995 6.9 0.829995 11.1 0.829995C15.33 0.829995 20.19 0.829995 25.68 0.829995C30.78 0.829995 35.025 1.475 38.415 2.765C41.805 4.055 44.355 6.14 46.065 9.02C47.775 11.87 48.63 15.68 48.63 20.45C48.63 24.56 47.88 28.205 46.38 31.385C44.88 34.535 42.45 37.01 39.09 38.81C35.73 40.58 31.215 41.465 25.545 41.465C24.105 41.465 22.53 41.465 20.82 41.465C19.14 41.465 17.49 41.465 15.87 41.465C14.28 41.465 12.915 41.465 11.775 41.465V31.52H22.8C25.8 31.52 28.26 31.145 30.18 30.395C32.1 29.645 33.51 28.475 34.41 26.885C35.34 25.265 35.805 23.165 35.805 20.585C35.805 18.485 35.475 16.805 34.815 15.545C34.155 14.255 33.285 13.28 32.205 12.62C31.125 11.96 29.94 11.51 28.65 11.27C27.36 11.03 26.085 10.91 24.825 10.91H7.32L13.395 2.765C13.395 6.305 13.395 9.755 13.395 13.115C13.395 16.445 13.395 20.15 13.395 24.23V43.985C13.395 47.975 13.395 51.605 13.395 54.875C13.395 58.145 13.395 61.52 13.395 65H0.975ZM57.9991 65C57.9991 61.76 57.9991 58.625 57.9991 55.595C57.9991 52.565 57.9991 49.19 57.9991 45.47V40.97C57.9991 37.58 57.9991 34.145 57.9991 30.665C57.9991 27.185 57.9991 23.69 57.9991 20.18L67.7191 19.595L68.1691 28.145H69.1591C70.3591 25.595 71.6941 23.675 73.1641 22.385C74.6341 21.065 76.1341 20.18 77.6641 19.73C79.2241 19.25 80.6791 19.01 82.0291 19.01C82.7491 19.01 83.5291 19.07 84.3691 19.19C85.2391 19.31 86.0491 19.52 86.7991 19.82L85.7641 31.025C84.6841 30.875 83.6941 30.77 82.7941 30.71C81.9241 30.62 80.9491 30.575 79.8691 30.575C79.0291 30.575 78.1291 30.68 77.1691 30.89C76.2091 31.1 75.2641 31.52 74.3341 32.15C73.4041 32.75 72.5191 33.635 71.6791 34.805C70.8391 35.975 70.0891 37.505 69.4291 39.395V46.055C69.4291 49.475 69.4291 52.685 69.4291 55.685C69.4291 58.655 69.4291 61.76 69.4291 65H57.9991ZM114.254 66.125C110.294 66.125 106.844 65.495 103.904 64.235C100.964 62.945 98.5191 61.19 96.5691 58.97C94.6191 56.75 93.1641 54.215 92.2041 51.365C91.2441 48.515 90.7641 45.53 90.7641 42.41C90.7641 37.94 91.6641 33.95 93.4641 30.44C95.2641 26.9 97.8891 24.11 101.339 22.07C104.819 20.03 109.049 19.01 114.029 19.01C117.869 19.01 121.229 19.61 124.109 20.81C127.019 21.98 129.449 23.63 131.399 25.76C133.379 27.89 134.864 30.38 135.854 33.23C136.844 36.05 137.339 39.11 137.339 42.41C137.339 46.91 136.424 50.945 134.594 54.515C132.794 58.085 130.169 60.92 126.719 63.02C123.269 65.09 119.114 66.125 114.254 66.125ZM114.209 56.675C116.789 56.675 118.919 56 120.599 54.65C122.309 53.27 123.584 51.5 124.424 49.34C125.264 47.18 125.684 44.87 125.684 42.41C125.684 39.53 125.204 37.055 124.244 34.985C123.314 32.885 121.979 31.28 120.239 30.17C118.499 29.03 116.474 28.46 114.164 28.46C111.614 28.46 109.454 29.09 107.684 30.35C105.944 31.58 104.624 33.245 103.724 35.345C102.854 37.445 102.419 39.8 102.419 42.41C102.419 44.87 102.854 47.18 103.724 49.34C104.594 51.5 105.899 53.27 107.639 54.65C109.409 56 111.599 56.675 114.209 56.675Z" fill="#035FC3"/>
<path d="M145.948 65C146.398 61.61 146.833 58.235 147.253 54.875C147.673 51.485 148.123 47.825 148.603 43.895L151.258 22.475C151.768 18.575 152.233 14.915 152.653 11.495C153.073 8.045 153.508 4.49 153.958 0.829995H166.693C168.283 4.79 169.798 8.6 171.238 12.26C172.678 15.89 174.118 19.505 175.558 23.105L184.063 44.48H184.918L193.198 23.15C194.638 19.52 196.048 15.92 197.428 12.35C198.838 8.75 200.308 4.91 201.838 0.829995H214.438C214.888 4.46 215.323 8 215.743 11.45C216.193 14.87 216.658 18.56 217.138 22.52L219.838 44.03C220.348 47.93 220.813 51.545 221.233 54.875C221.653 58.175 222.073 61.55 222.493 65H210.523C209.923 60.11 209.353 55.46 208.813 51.05C208.273 46.64 207.763 42.515 207.283 38.675L205.258 22.115H204.403L197.968 39.935C196.408 44.285 194.833 48.605 193.243 52.895C191.683 57.185 190.228 61.22 188.878 65H180.463C179.563 62.57 178.558 59.96 177.448 57.17C176.368 54.35 175.258 51.485 174.118 48.575C172.978 45.635 171.853 42.77 170.743 39.98L163.813 22.115H162.958L160.978 38.585C160.498 42.455 159.988 46.61 159.448 51.05C158.908 55.46 158.353 60.11 157.783 65H145.948ZM243.566 66.035C241.046 66.035 238.796 65.51 236.816 64.46C234.836 63.41 233.261 61.895 232.091 59.915C230.951 57.905 230.381 55.49 230.381 52.67C230.381 50.18 230.816 48.08 231.686 46.37C232.556 44.63 233.696 43.22 235.106 42.14C236.546 41.03 238.121 40.175 239.831 39.575C241.571 38.975 243.326 38.54 245.096 38.27L257.921 36.38C258.011 34.28 257.651 32.66 256.841 31.52C256.061 30.38 254.936 29.6 253.466 29.18C251.996 28.73 250.301 28.505 248.381 28.505C247.361 28.505 246.251 28.595 245.051 28.775C243.881 28.925 242.636 29.165 241.316 29.495C240.026 29.825 238.676 30.245 237.266 30.755C235.856 31.235 234.416 31.82 232.946 32.51L232.406 22.565C233.516 22.145 234.761 21.725 236.141 21.305C237.551 20.885 239.081 20.51 240.731 20.18C242.381 19.82 244.091 19.55 245.861 19.37C247.661 19.16 249.506 19.055 251.396 19.055C255.056 19.055 258.176 19.595 260.756 20.675C263.366 21.725 265.361 23.42 266.741 25.76C268.121 28.07 268.811 31.085 268.811 34.805C268.811 36.245 268.811 38.03 268.811 40.16C268.811 42.29 268.811 44.24 268.811 46.01V50.96C268.811 53.15 268.811 55.385 268.811 57.665C268.811 59.915 268.811 62.36 268.811 65H258.686L258.011 59.15H257.066C256.226 60.26 255.176 61.34 253.916 62.39C252.656 63.41 251.156 64.28 249.416 65C247.706 65.69 245.756 66.035 243.566 66.035ZM247.706 57.08C248.966 57.08 250.211 56.78 251.441 56.18C252.671 55.58 253.811 54.74 254.861 53.66C255.941 52.58 256.856 51.29 257.606 49.79V42.725C257.216 42.995 256.691 43.25 256.031 43.49C255.401 43.7 254.456 43.94 253.196 44.21C251.936 44.48 250.166 44.825 247.886 45.245C246.596 45.485 245.501 45.89 244.601 46.46C243.731 47.03 243.056 47.765 242.576 48.665C242.096 49.565 241.856 50.6 241.856 51.77C241.856 53.72 242.441 55.1 243.611 55.91C244.811 56.69 246.176 57.08 247.706 57.08ZM280.362 65C280.362 61.76 280.362 58.625 280.362 55.595C280.362 52.565 280.362 49.19 280.362 45.47V40.97C280.362 37.58 280.362 34.145 280.362 30.665C280.362 27.185 280.362 23.69 280.362 20.18L290.082 19.595L290.532 27.56H291.567C292.557 26.12 293.772 24.755 295.212 23.465C296.682 22.145 298.377 21.08 300.297 20.27C302.247 19.43 304.467 19.01 306.957 19.01C311.547 19.01 314.967 20.36 317.217 23.06C319.497 25.73 320.637 29.69 320.637 34.94C320.637 36.89 320.637 38.69 320.637 40.34C320.637 41.96 320.637 43.67 320.637 45.47C320.637 49.1 320.637 52.46 320.637 55.55C320.637 58.61 320.637 61.76 320.637 65H309.207C309.207 61.76 309.207 58.625 309.207 55.595C309.207 52.565 309.207 49.385 309.207 46.055V38.45C309.207 35.51 308.697 33.29 307.677 31.79C306.687 30.29 304.887 29.54 302.277 29.54C300.747 29.54 299.337 29.855 298.047 30.485C296.787 31.085 295.632 31.91 294.582 32.96C293.562 33.98 292.632 35.135 291.792 36.425V46.055C291.792 49.475 291.792 52.685 291.792 55.685C291.792 58.655 291.792 61.76 291.792 65H280.362ZM342.883 66.035C340.363 66.035 338.113 65.51 336.133 64.46C334.153 63.41 332.578 61.895 331.408 59.915C330.268 57.905 329.698 55.49 329.698 52.67C329.698 50.18 330.133 48.08 331.003 46.37C331.873 44.63 333.013 43.22 334.423 42.14C335.863 41.03 337.438 40.175 339.148 39.575C340.888 38.975 342.643 38.54 344.413 38.27L357.238 36.38C357.328 34.28 356.968 32.66 356.158 31.52C355.378 30.38 354.253 29.6 352.783 29.18C351.313 28.73 349.618 28.505 347.698 28.505C346.678 28.505 345.568 28.595 344.368 28.775C343.198 28.925 341.953 29.165 340.633 29.495C339.343 29.825 337.993 30.245 336.583 30.755C335.173 31.235 333.733 31.82 332.263 32.51L331.723 22.565C332.833 22.145 334.078 21.725 335.458 21.305C336.868 20.885 338.398 20.51 340.048 20.18C341.698 19.82 343.408 19.55 345.178 19.37C346.978 19.16 348.823 19.055 350.713 19.055C354.373 19.055 357.493 19.595 360.073 20.675C362.683 21.725 364.678 23.42 366.058 25.76C367.438 28.07 368.128 31.085 368.128 34.805C368.128 36.245 368.128 38.03 368.128 40.16C368.128 42.29 368.128 44.24 368.128 46.01V50.96C368.128 53.15 368.128 55.385 368.128 57.665C368.128 59.915 368.128 62.36 368.128 65H358.003L357.328 59.15H356.383C355.543 60.26 354.493 61.34 353.233 62.39C351.973 63.41 350.473 64.28 348.733 65C347.023 65.69 345.073 66.035 342.883 66.035ZM347.023 57.08C348.283 57.08 349.528 56.78 350.758 56.18C351.988 55.58 353.128 54.74 354.178 53.66C355.258 52.58 356.173 51.29 356.923 49.79V42.725C356.533 42.995 356.008 43.25 355.348 43.49C354.718 43.7 353.773 43.94 352.513 44.21C351.253 44.48 349.483 44.825 347.203 45.245C345.913 45.485 344.818 45.89 343.918 46.46C343.048 47.03 342.373 47.765 341.893 48.665C341.413 49.565 341.173 50.6 341.173 51.77C341.173 53.72 341.758 55.1 342.928 55.91C344.128 56.69 345.493 57.08 347.023 57.08ZM395.114 83.36C391.754 83.36 388.934 83.075 386.654 82.505C384.374 81.935 382.559 81.14 381.209 80.12C379.889 79.13 378.944 78.005 378.374 76.745C377.804 75.515 377.519 74.255 377.519 72.965C377.519 70.955 377.999 69.29 378.959 67.97C379.919 66.68 381.029 65.675 382.289 64.955C383.579 64.205 384.674 63.68 385.574 63.38V62.57C385.094 62.42 384.494 62.09 383.774 61.58C383.054 61.07 382.409 60.365 381.839 59.465C381.269 58.535 380.984 57.365 380.984 55.955C380.984 54.965 381.164 54.02 381.524 53.12C381.884 52.22 382.454 51.395 383.234 50.645C384.044 49.865 385.079 49.19 386.339 48.62V47.81C385.499 47.45 384.539 46.925 383.459 46.235C382.379 45.515 381.329 44.6 380.309 43.49C379.319 42.38 378.494 41.03 377.834 39.44C377.174 37.85 376.844 35.99 376.844 33.86C376.844 31.01 377.549 28.475 378.959 26.255C380.369 24.035 382.454 22.28 385.214 20.99C387.974 19.7 391.379 19.055 395.429 19.055C397.019 19.055 398.414 19.145 399.614 19.325C400.814 19.475 402.059 19.64 403.349 19.82C404.639 19.97 406.244 20.045 408.164 20.045H420.989V27.965C418.139 27.965 415.394 27.965 412.754 27.965C410.114 27.965 407.429 27.965 404.699 27.965L407.759 22.925C409.919 24.185 411.494 25.79 412.484 27.74C413.504 29.69 414.014 31.94 414.014 34.49C414.014 37.49 413.369 40.01 412.079 42.05C410.819 44.09 409.094 45.74 406.904 47C404.714 48.23 402.224 49.145 399.434 49.745C396.734 50.345 394.739 50.885 393.449 51.365C392.159 51.845 391.514 52.535 391.514 53.435C391.514 54.095 391.784 54.605 392.324 54.965C392.864 55.295 393.719 55.535 394.889 55.685C396.089 55.805 397.634 55.865 399.524 55.865H401.369C405.299 55.865 408.599 56.21 411.269 56.9C413.969 57.56 416.009 58.7 417.389 60.32C418.799 61.91 419.504 64.115 419.504 66.935C419.504 69.875 418.784 72.38 417.344 74.45C415.904 76.55 413.969 78.245 411.539 79.535C409.139 80.855 406.514 81.815 403.664 82.415C400.814 83.045 397.964 83.36 395.114 83.36ZM396.464 74.855C399.224 74.855 401.504 74.495 403.304 73.775C405.134 73.085 406.499 72.275 407.399 71.345C408.329 70.415 408.794 69.605 408.794 68.915C408.794 68.105 408.509 67.4 407.939 66.8C407.369 66.2 406.319 65.735 404.789 65.405C403.289 65.105 401.099 64.955 398.219 64.955H396.734C395.354 65.015 393.959 65.27 392.549 65.72C391.169 66.17 390.014 66.785 389.084 67.565C388.154 68.345 387.689 69.23 387.689 70.22C387.689 70.79 387.854 71.36 388.184 71.93C388.514 72.5 389.024 72.995 389.714 73.415C390.404 73.865 391.304 74.21 392.414 74.45C393.554 74.72 394.904 74.855 396.464 74.855ZM395.114 42.365C395.954 42.245 396.869 42.05 397.859 41.78C398.849 41.48 399.779 41.06 400.649 40.52C401.549 39.98 402.269 39.29 402.809 38.45C403.379 37.61 403.664 36.605 403.664 35.435C403.664 33.785 403.244 32.435 402.404 31.385C401.564 30.335 400.499 29.555 399.209 29.045C397.949 28.535 396.659 28.28 395.339 28.28C393.989 28.28 392.714 28.535 391.514 29.045C390.314 29.555 389.324 30.305 388.544 31.295C387.764 32.285 387.374 33.485 387.374 34.895C387.374 36.305 387.734 37.52 388.454 38.54C389.204 39.56 390.164 40.4 391.334 41.06C392.504 41.69 393.764 42.125 395.114 42.365ZM449.754 66.125C444.114 66.125 439.494 65.105 435.894 63.065C432.294 61.025 429.639 58.22 427.929 54.65C426.219 51.08 425.364 47 425.364 42.41C425.364 37.85 426.174 33.815 427.794 30.305C429.444 26.765 431.859 24.005 435.039 22.025C438.219 20.045 442.119 19.055 446.739 19.055C450.729 19.055 454.134 19.79 456.954 21.26C459.804 22.7 461.994 24.875 463.524 27.785C465.054 30.665 465.819 34.295 465.819 38.675C465.819 39.845 465.789 40.895 465.729 41.825C465.699 42.755 465.609 43.67 465.459 44.57L455.514 40.565C455.574 40.145 455.619 39.725 455.649 39.305C455.679 38.855 455.694 38.435 455.694 38.045C455.694 34.745 454.869 32.165 453.219 30.305C451.569 28.415 449.439 27.47 446.829 27.47C444.849 27.47 443.109 28.04 441.609 29.18C440.109 30.29 438.924 31.85 438.054 33.86C437.184 35.87 436.749 38.195 436.749 40.835V42.59C436.749 45.5 437.259 48.005 438.279 50.105C439.299 52.175 440.874 53.78 443.004 54.92C445.134 56.03 447.819 56.585 451.059 56.585C452.319 56.585 453.729 56.48 455.289 56.27C456.879 56.03 458.484 55.67 460.104 55.19C461.724 54.71 463.239 54.095 464.649 53.345L465.009 63.155C463.869 63.725 462.534 64.235 461.004 64.685C459.474 65.135 457.764 65.48 455.874 65.72C453.984 65.99 451.944 66.125 449.754 66.125ZM429.864 44.57V37.415L458.709 36.92L465.459 39.485V44.57H429.864ZM475.48 65C475.48 61.76 475.48 58.625 475.48 55.595C475.48 52.565 475.48 49.19 475.48 45.47V40.97C475.48 37.58 475.48 34.145 475.48 30.665C475.48 27.185 475.48 23.69 475.48 20.18L485.2 19.595L485.65 28.145H486.64C487.84 25.595 489.175 23.675 490.645 22.385C492.115 21.065 493.615 20.18 495.145 19.73C496.705 19.25 498.16 19.01 499.51 19.01C500.23 19.01 501.01 19.07 501.85 19.19C502.72 19.31 503.53 19.52 504.28 19.82L503.245 31.025C502.165 30.875 501.175 30.77 500.275 30.71C499.405 30.62 498.43 30.575 497.35 30.575C496.51 30.575 495.61 30.68 494.65 30.89C493.69 31.1 492.745 31.52 491.815 32.15C490.885 32.75 490 33.635 489.16 34.805C488.32 35.975 487.57 37.505 486.91 39.395V46.055C486.91 49.475 486.91 52.685 486.91 55.685C486.91 58.655 486.91 61.76 486.91 65H475.48Z" fill="#1A1A1A"/>
</svg>
